<mxfile host="app.diagrams.net" modified="2022-05-23T15:37:04.657Z" agent="5.0 (Windows NT 10.0; Win64; x64) AppleWebKit/537.36 (KHTML, like Gecko) Chrome/101.0.4951.64 Safari/537.36 Edg/101.0.1210.53" etag="e81DjC0I3t4y7w33KzGd" version="18.1.1" type="github">
  <diagram id="T55q2Q23B8lCEM-XEHNR" name="Page-1">
    <mxGraphModel dx="1292" dy="696" grid="0" gridSize="10" guides="1" tooltips="1" connect="1" arrows="1" fold="1" page="0" pageScale="1" pageWidth="1200" pageHeight="1920" math="0" shadow="0">
      <root>
        <mxCell id="0" />
        <mxCell id="1" parent="0" />
        <mxCell id="cYdzDI0-7bz1sQTgUbkQ-1" value="" style="rounded=0;whiteSpace=wrap;html=1;" vertex="1" parent="1">
          <mxGeometry x="268" y="314" width="192" height="95" as="geometry" />
        </mxCell>
        <mxCell id="cYdzDI0-7bz1sQTgUbkQ-4" value="Memory Bus Monitor (MBM)" style="rounded=1;whiteSpace=wrap;html=1;" vertex="1" parent="1">
          <mxGeometry x="268" y="503" width="434" height="30" as="geometry" />
        </mxCell>
        <mxCell id="cYdzDI0-7bz1sQTgUbkQ-15" value="&lt;font style=&quot;font-size: 16px;&quot;&gt;Hypersec&lt;/font&gt;" style="rounded=1;whiteSpace=wrap;html=1;strokeColor=#3399FF;strokeWidth=2;" vertex="1" parent="1">
          <mxGeometry x="283" y="439.5" width="134" height="42" as="geometry" />
        </mxCell>
        <mxCell id="cYdzDI0-7bz1sQTgUbkQ-6" value="" style="line;strokeWidth=2;html=1;strokeColor=#2ECEFF;" vertex="1" parent="1">
          <mxGeometry x="268" y="427" width="231" height="10" as="geometry" />
        </mxCell>
        <mxCell id="cYdzDI0-7bz1sQTgUbkQ-7" value="" style="line;strokeWidth=2;html=1;strokeColor=#2ECEFF;" vertex="1" parent="1">
          <mxGeometry x="268" y="483" width="430" height="10" as="geometry" />
        </mxCell>
        <mxCell id="cYdzDI0-7bz1sQTgUbkQ-8" value="" style="line;strokeWidth=2;direction=south;html=1;strokeColor=#2ECEFF;" vertex="1" parent="1">
          <mxGeometry x="692" y="313" width="10" height="174" as="geometry" />
        </mxCell>
        <mxCell id="cYdzDI0-7bz1sQTgUbkQ-9" value="" style="line;strokeWidth=2;direction=south;html=1;strokeColor=#2ECEFF;" vertex="1" parent="1">
          <mxGeometry x="485" y="314" width="26" height="119" as="geometry" />
        </mxCell>
        <mxCell id="cYdzDI0-7bz1sQTgUbkQ-12" value="" style="line;strokeWidth=2;html=1;perimeter=backbonePerimeter;points=[];outlineConnect=0;strokeColor=#2ECEFF;" vertex="1" parent="1">
          <mxGeometry x="498" y="310" width="199" height="10" as="geometry" />
        </mxCell>
        <mxCell id="cYdzDI0-7bz1sQTgUbkQ-13" value="" style="line;strokeWidth=2;direction=south;html=1;strokeColor=#2ECEFF;" vertex="1" parent="1">
          <mxGeometry x="264" y="433" width="10" height="55" as="geometry" />
        </mxCell>
        <mxCell id="cYdzDI0-7bz1sQTgUbkQ-18" value="&lt;font style=&quot;font-size: 14px;&quot;&gt;Security Solutions&lt;/font&gt;" style="shape=document;whiteSpace=wrap;html=1;boundedLbl=1;fontSize=16;strokeColor=#000000;strokeWidth=2;" vertex="1" parent="1">
          <mxGeometry x="530.5" y="353" width="134" height="54" as="geometry" />
        </mxCell>
        <mxCell id="cYdzDI0-7bz1sQTgUbkQ-19" value="Secure Space" style="text;html=1;strokeColor=none;fillColor=none;align=center;verticalAlign=middle;whiteSpace=wrap;rounded=0;fontSize=14;" vertex="1" parent="1">
          <mxGeometry x="541" y="320" width="104" height="30" as="geometry" />
        </mxCell>
        <mxCell id="cYdzDI0-7bz1sQTgUbkQ-20" value="Normal Space" style="text;html=1;strokeColor=none;fillColor=none;align=center;verticalAlign=middle;whiteSpace=wrap;rounded=0;fontSize=14;" vertex="1" parent="1">
          <mxGeometry x="312" y="323" width="104" height="30" as="geometry" />
        </mxCell>
        <mxCell id="cYdzDI0-7bz1sQTgUbkQ-21" value="OS kernel" style="rounded=1;whiteSpace=wrap;html=1;fontSize=14;strokeColor=#000000;strokeWidth=2;" vertex="1" parent="1">
          <mxGeometry x="300" y="367" width="128" height="26" as="geometry" />
        </mxCell>
        <mxCell id="cYdzDI0-7bz1sQTgUbkQ-22" value="" style="endArrow=none;dashed=1;html=1;rounded=0;fontSize=14;strokeColor=#33FF33;strokeWidth=3;" edge="1" parent="1">
          <mxGeometry width="50" height="50" relative="1" as="geometry">
            <mxPoint x="478" y="419" as="sourcePoint" />
            <mxPoint x="478" y="304" as="targetPoint" />
          </mxGeometry>
        </mxCell>
        <mxCell id="cYdzDI0-7bz1sQTgUbkQ-23" value="" style="endArrow=none;dashed=1;html=1;rounded=0;fontSize=14;strokeColor=#33FF33;strokeWidth=3;" edge="1" parent="1">
          <mxGeometry width="50" height="50" relative="1" as="geometry">
            <mxPoint x="267" y="419" as="sourcePoint" />
            <mxPoint x="477" y="419" as="targetPoint" />
          </mxGeometry>
        </mxCell>
        <mxCell id="cYdzDI0-7bz1sQTgUbkQ-24" value="" style="rounded=0;whiteSpace=wrap;html=1;fontSize=14;strokeColor=#000000;strokeWidth=2;" vertex="1" parent="1">
          <mxGeometry x="119" y="1079" width="874" height="374" as="geometry" />
        </mxCell>
        <mxCell id="cYdzDI0-7bz1sQTgUbkQ-27" value="" style="line;strokeWidth=2;direction=south;html=1;fontSize=14;dashed=1;" vertex="1" parent="1">
          <mxGeometry x="551" y="1079" width="10" height="374" as="geometry" />
        </mxCell>
        <mxCell id="cYdzDI0-7bz1sQTgUbkQ-28" value="Normal Space" style="text;html=1;strokeColor=none;fillColor=none;align=center;verticalAlign=middle;whiteSpace=wrap;rounded=0;dashed=1;fontSize=14;" vertex="1" parent="1">
          <mxGeometry x="127" y="1416" width="106" height="30" as="geometry" />
        </mxCell>
        <mxCell id="cYdzDI0-7bz1sQTgUbkQ-29" value="Secure Space" style="text;html=1;strokeColor=none;fillColor=none;align=center;verticalAlign=middle;whiteSpace=wrap;rounded=0;dashed=1;fontSize=14;" vertex="1" parent="1">
          <mxGeometry x="875" y="1416" width="106" height="30" as="geometry" />
        </mxCell>
        <mxCell id="cYdzDI0-7bz1sQTgUbkQ-30" value="" style="rounded=0;whiteSpace=wrap;html=1;fontSize=14;strokeColor=#000000;strokeWidth=2;fillColor=none;" vertex="1" parent="1">
          <mxGeometry x="170.5" y="1189" width="771" height="143" as="geometry" />
        </mxCell>
        <mxCell id="cYdzDI0-7bz1sQTgUbkQ-31" value="Address Space" style="text;html=1;strokeColor=none;fillColor=none;align=center;verticalAlign=middle;whiteSpace=wrap;rounded=0;fontSize=14;" vertex="1" parent="1">
          <mxGeometry x="169" y="1157" width="114" height="30" as="geometry" />
        </mxCell>
        <mxCell id="cYdzDI0-7bz1sQTgUbkQ-36" value="" style="rounded=0;whiteSpace=wrap;html=1;fontSize=14;strokeColor=#000000;strokeWidth=2;fillColor=none;" vertex="1" parent="1">
          <mxGeometry x="206" y="1189" width="120" height="143" as="geometry" />
        </mxCell>
        <mxCell id="cYdzDI0-7bz1sQTgUbkQ-37" value="monitored&amp;nbsp;&lt;br&gt;region" style="rounded=0;whiteSpace=wrap;html=1;fontSize=14;strokeColor=#000000;strokeWidth=2;fillColor=#E6E6E6;" vertex="1" parent="1">
          <mxGeometry x="386" y="1189" width="120" height="143" as="geometry" />
        </mxCell>
        <mxCell id="cYdzDI0-7bz1sQTgUbkQ-59" style="edgeStyle=orthogonalEdgeStyle;rounded=0;orthogonalLoop=1;jettySize=auto;html=1;exitX=0.75;exitY=1;exitDx=0;exitDy=0;entryX=0.5;entryY=0;entryDx=0;entryDy=0;fontSize=14;strokeColor=#B20000;strokeWidth=2;fillColor=#e51400;" edge="1" parent="1" source="cYdzDI0-7bz1sQTgUbkQ-38" target="cYdzDI0-7bz1sQTgUbkQ-56">
          <mxGeometry relative="1" as="geometry" />
        </mxCell>
        <mxCell id="cYdzDI0-7bz1sQTgUbkQ-38" value="" style="rounded=0;whiteSpace=wrap;html=1;fontSize=14;strokeColor=#000000;strokeWidth=2;fillColor=none;" vertex="1" parent="1">
          <mxGeometry x="630" y="1189" width="120" height="143" as="geometry" />
        </mxCell>
        <mxCell id="cYdzDI0-7bz1sQTgUbkQ-63" style="edgeStyle=orthogonalEdgeStyle;rounded=0;orthogonalLoop=1;jettySize=auto;html=1;exitX=0.5;exitY=0;exitDx=0;exitDy=0;entryX=0.75;entryY=1;entryDx=0;entryDy=0;fontSize=14;strokeColor=#B20000;strokeWidth=2;fillColor=#e51400;" edge="1" parent="1" source="cYdzDI0-7bz1sQTgUbkQ-39" target="cYdzDI0-7bz1sQTgUbkQ-48">
          <mxGeometry relative="1" as="geometry">
            <Array as="points">
              <mxPoint x="855" y="1177" />
              <mxPoint x="750" y="1177" />
            </Array>
          </mxGeometry>
        </mxCell>
        <mxCell id="cYdzDI0-7bz1sQTgUbkQ-39" value="" style="rounded=0;whiteSpace=wrap;html=1;fontSize=14;strokeColor=#000000;strokeWidth=2;fillColor=none;" vertex="1" parent="1">
          <mxGeometry x="795" y="1189" width="120" height="143" as="geometry" />
        </mxCell>
        <mxCell id="cYdzDI0-7bz1sQTgUbkQ-40" value="Bitmap&lt;span style=&quot;color: rgba(0, 0, 0, 0); font-family: monospace; font-size: 0px; text-align: start;&quot;&gt;%3CmxGraphModel%3E%3Croot%3E%3CmxCell%20id%3D%220%22%2F%3E%3CmxCell%20id%3D%221%22%20parent%3D%220%22%2F%3E%3CmxCell%20id%3D%222%22%20value%3D%22%22%20style%3D%22rounded%3D0%3BwhiteSpace%3Dwrap%3Bhtml%3D1%3BfontSize%3D14%3BstrokeColor%3D%23000000%3BstrokeWidth%3D2%3BfillColor%3Dnone%3B%22%20vertex%3D%221%22%20parent%3D%221%22%3E%3CmxGeometry%20x%3D%22630%22%20y%3D%221189%22%20width%3D%22120%22%20height%3D%22143%22%20as%3D%22geometry%22%2F%3E%3C%2FmxCell%3E%3C%2Froot%3E%3C%2FmxGraphModel%3E&lt;/span&gt;" style="text;html=1;strokeColor=none;fillColor=none;align=center;verticalAlign=middle;whiteSpace=wrap;rounded=0;fontSize=14;" vertex="1" parent="1">
          <mxGeometry x="660" y="1200" width="60" height="30" as="geometry" />
        </mxCell>
        <mxCell id="cYdzDI0-7bz1sQTgUbkQ-41" value="Buffer" style="text;html=1;strokeColor=none;fillColor=none;align=center;verticalAlign=middle;whiteSpace=wrap;rounded=0;fontSize=14;" vertex="1" parent="1">
          <mxGeometry x="825" y="1200" width="60" height="30" as="geometry" />
        </mxCell>
        <mxCell id="cYdzDI0-7bz1sQTgUbkQ-51" style="edgeStyle=orthogonalEdgeStyle;rounded=0;orthogonalLoop=1;jettySize=auto;html=1;exitX=0.5;exitY=0;exitDx=0;exitDy=0;entryX=0;entryY=0.5;entryDx=0;entryDy=0;fontSize=14;strokeColor=#82b366;strokeWidth=2;fillColor=#d5e8d4;" edge="1" parent="1" source="cYdzDI0-7bz1sQTgUbkQ-42" target="cYdzDI0-7bz1sQTgUbkQ-47">
          <mxGeometry relative="1" as="geometry">
            <Array as="points">
              <mxPoint x="285" y="1206" />
              <mxPoint x="285" y="1129" />
            </Array>
          </mxGeometry>
        </mxCell>
        <mxCell id="cYdzDI0-7bz1sQTgUbkQ-42" value="HVC (SID, A, 10)" style="rounded=0;whiteSpace=wrap;html=1;fontSize=14;strokeColor=#82b366;strokeWidth=2;fillColor=#d5e8d4;" vertex="1" parent="1">
          <mxGeometry x="206" y="1206" width="120" height="38" as="geometry" />
        </mxCell>
        <mxCell id="cYdzDI0-7bz1sQTgUbkQ-57" style="edgeStyle=orthogonalEdgeStyle;rounded=0;orthogonalLoop=1;jettySize=auto;html=1;exitX=0.5;exitY=1;exitDx=0;exitDy=0;entryX=0;entryY=0.5;entryDx=0;entryDy=0;fontSize=14;strokeColor=#B20000;strokeWidth=2;fillColor=#e51400;" edge="1" parent="1" source="cYdzDI0-7bz1sQTgUbkQ-43" target="cYdzDI0-7bz1sQTgUbkQ-55">
          <mxGeometry relative="1" as="geometry" />
        </mxCell>
        <mxCell id="cYdzDI0-7bz1sQTgUbkQ-43" value="STORE X1, [A+2]" style="rounded=0;whiteSpace=wrap;html=1;fontSize=14;strokeColor=#d79b00;strokeWidth=2;fillColor=#ffe6cc;" vertex="1" parent="1">
          <mxGeometry x="206" y="1270" width="120" height="38" as="geometry" />
        </mxCell>
        <mxCell id="cYdzDI0-7bz1sQTgUbkQ-44" value="A" style="text;html=1;strokeColor=none;fillColor=none;align=center;verticalAlign=middle;whiteSpace=wrap;rounded=0;fontSize=14;" vertex="1" parent="1">
          <mxGeometry x="356" y="1159" width="60" height="30" as="geometry" />
        </mxCell>
        <mxCell id="cYdzDI0-7bz1sQTgUbkQ-45" value="A + 10" style="text;html=1;strokeColor=none;fillColor=none;align=center;verticalAlign=middle;whiteSpace=wrap;rounded=0;fontSize=14;" vertex="1" parent="1">
          <mxGeometry x="475" y="1159" width="60" height="30" as="geometry" />
        </mxCell>
        <mxCell id="cYdzDI0-7bz1sQTgUbkQ-52" style="edgeStyle=orthogonalEdgeStyle;rounded=0;orthogonalLoop=1;jettySize=auto;html=1;exitX=1;exitY=0.5;exitDx=0;exitDy=0;entryX=0;entryY=0.5;entryDx=0;entryDy=0;fontSize=14;strokeColor=#82b366;strokeWidth=2;fillColor=#d5e8d4;" edge="1" parent="1" source="cYdzDI0-7bz1sQTgUbkQ-47" target="cYdzDI0-7bz1sQTgUbkQ-48">
          <mxGeometry relative="1" as="geometry" />
        </mxCell>
        <mxCell id="cYdzDI0-7bz1sQTgUbkQ-47" value="Hypercall" style="rounded=0;whiteSpace=wrap;html=1;fontSize=14;strokeColor=#82b366;strokeWidth=2;fillColor=#d5e8d4;" vertex="1" parent="1">
          <mxGeometry x="497.5" y="1113" width="117" height="32" as="geometry" />
        </mxCell>
        <mxCell id="cYdzDI0-7bz1sQTgUbkQ-60" style="edgeStyle=orthogonalEdgeStyle;rounded=0;orthogonalLoop=1;jettySize=auto;html=1;exitX=0.5;exitY=1;exitDx=0;exitDy=0;entryX=0.75;entryY=0;entryDx=0;entryDy=0;fontSize=14;strokeColor=#82b366;strokeWidth=2;fillColor=#d5e8d4;" edge="1" parent="1" source="cYdzDI0-7bz1sQTgUbkQ-48" target="cYdzDI0-7bz1sQTgUbkQ-38">
          <mxGeometry relative="1" as="geometry" />
        </mxCell>
        <mxCell id="cYdzDI0-7bz1sQTgUbkQ-64" style="edgeStyle=orthogonalEdgeStyle;rounded=0;orthogonalLoop=1;jettySize=auto;html=1;exitX=1;exitY=0.5;exitDx=0;exitDy=0;entryX=0;entryY=0.5;entryDx=0;entryDy=0;fontSize=14;strokeColor=#B20000;strokeWidth=2;fillColor=#e51400;" edge="1" parent="1" source="cYdzDI0-7bz1sQTgUbkQ-48" target="cYdzDI0-7bz1sQTgUbkQ-49">
          <mxGeometry relative="1" as="geometry" />
        </mxCell>
        <mxCell id="cYdzDI0-7bz1sQTgUbkQ-48" value="Hypersec" style="rounded=1;whiteSpace=wrap;html=1;fontSize=14;strokeColor=#000000;strokeWidth=2;fillColor=default;" vertex="1" parent="1">
          <mxGeometry x="660" y="1099" width="120" height="60" as="geometry" />
        </mxCell>
        <mxCell id="cYdzDI0-7bz1sQTgUbkQ-49" value="Security&lt;br&gt;Solution" style="rounded=1;whiteSpace=wrap;html=1;fontSize=14;strokeColor=#000000;strokeWidth=2;fillColor=default;" vertex="1" parent="1">
          <mxGeometry x="813" y="1099" width="120" height="60" as="geometry" />
        </mxCell>
        <mxCell id="cYdzDI0-7bz1sQTgUbkQ-58" style="edgeStyle=orthogonalEdgeStyle;rounded=0;orthogonalLoop=1;jettySize=auto;html=1;exitX=1;exitY=0.5;exitDx=0;exitDy=0;entryX=0;entryY=0.5;entryDx=0;entryDy=0;fontSize=14;strokeColor=#B20000;strokeWidth=2;fillColor=#e51400;" edge="1" parent="1" source="cYdzDI0-7bz1sQTgUbkQ-55" target="cYdzDI0-7bz1sQTgUbkQ-56">
          <mxGeometry relative="1" as="geometry" />
        </mxCell>
        <mxCell id="cYdzDI0-7bz1sQTgUbkQ-55" value="MEM event" style="rounded=0;whiteSpace=wrap;html=1;fontSize=14;strokeColor=#d79b00;strokeWidth=2;fillColor=#ffe6cc;" vertex="1" parent="1">
          <mxGeometry x="497.5" y="1384" width="117" height="32" as="geometry" />
        </mxCell>
        <mxCell id="cYdzDI0-7bz1sQTgUbkQ-61" style="edgeStyle=orthogonalEdgeStyle;rounded=0;orthogonalLoop=1;jettySize=auto;html=1;exitX=1;exitY=0.5;exitDx=0;exitDy=0;entryX=0.75;entryY=1;entryDx=0;entryDy=0;fontSize=14;strokeColor=#B20000;strokeWidth=2;fillColor=#e51400;" edge="1" parent="1" source="cYdzDI0-7bz1sQTgUbkQ-56" target="cYdzDI0-7bz1sQTgUbkQ-39">
          <mxGeometry relative="1" as="geometry" />
        </mxCell>
        <mxCell id="cYdzDI0-7bz1sQTgUbkQ-62" style="edgeStyle=orthogonalEdgeStyle;rounded=0;orthogonalLoop=1;jettySize=auto;html=1;exitX=1;exitY=0.5;exitDx=0;exitDy=0;entryX=0.5;entryY=0;entryDx=0;entryDy=0;fontSize=14;strokeColor=#B20000;strokeWidth=2;fillColor=#e51400;" edge="1" parent="1" source="cYdzDI0-7bz1sQTgUbkQ-56" target="cYdzDI0-7bz1sQTgUbkQ-48">
          <mxGeometry relative="1" as="geometry">
            <Array as="points">
              <mxPoint x="963" y="1400" />
              <mxPoint x="963" y="1086" />
              <mxPoint x="720" y="1086" />
            </Array>
          </mxGeometry>
        </mxCell>
        <mxCell id="cYdzDI0-7bz1sQTgUbkQ-56" value="MBM" style="rounded=1;whiteSpace=wrap;html=1;fontSize=14;strokeColor=#000000;strokeWidth=2;fillColor=default;" vertex="1" parent="1">
          <mxGeometry x="660" y="1370" width="120" height="60" as="geometry" />
        </mxCell>
        <mxCell id="cYdzDI0-7bz1sQTgUbkQ-65" value="&lt;font color=&quot;#ffffff&quot;&gt;1&lt;/font&gt;" style="ellipse;whiteSpace=wrap;html=1;aspect=fixed;fontSize=14;strokeWidth=2;fillColor=#000000;" vertex="1" parent="1">
          <mxGeometry x="375" y="1099" width="22" height="22" as="geometry" />
        </mxCell>
        <mxCell id="cYdzDI0-7bz1sQTgUbkQ-66" value="&lt;font color=&quot;#ffffff&quot;&gt;2&lt;/font&gt;" style="ellipse;whiteSpace=wrap;html=1;aspect=fixed;fontSize=14;strokeWidth=2;fillColor=#000000;" vertex="1" parent="1">
          <mxGeometry x="688" y="1161" width="22" height="22" as="geometry" />
        </mxCell>
        <mxCell id="cYdzDI0-7bz1sQTgUbkQ-67" value="&lt;font color=&quot;#ffffff&quot;&gt;3&lt;/font&gt;" style="ellipse;whiteSpace=wrap;html=1;aspect=fixed;fontSize=14;strokeWidth=2;fillColor=#000000;" vertex="1" parent="1">
          <mxGeometry x="372.5" y="1372" width="22" height="22" as="geometry" />
        </mxCell>
        <mxCell id="cYdzDI0-7bz1sQTgUbkQ-68" value="&lt;font color=&quot;#ffffff&quot;&gt;4&lt;/font&gt;" style="ellipse;whiteSpace=wrap;html=1;aspect=fixed;fontSize=14;strokeWidth=2;fillColor=#000000;" vertex="1" parent="1">
          <mxGeometry x="686" y="1339" width="22" height="22" as="geometry" />
        </mxCell>
        <mxCell id="cYdzDI0-7bz1sQTgUbkQ-69" value="&lt;font color=&quot;#ffffff&quot;&gt;5&lt;/font&gt;" style="ellipse;whiteSpace=wrap;html=1;aspect=fixed;fontSize=14;strokeWidth=2;fillColor=#000000;" vertex="1" parent="1">
          <mxGeometry x="856" y="1358" width="22" height="22" as="geometry" />
        </mxCell>
        <mxCell id="cYdzDI0-7bz1sQTgUbkQ-70" value="&lt;font color=&quot;#ffffff&quot;&gt;6&lt;/font&gt;" style="ellipse;whiteSpace=wrap;html=1;aspect=fixed;fontSize=14;strokeWidth=2;fillColor=#000000;" vertex="1" parent="1">
          <mxGeometry x="933" y="1358" width="22" height="22" as="geometry" />
        </mxCell>
        <mxCell id="cYdzDI0-7bz1sQTgUbkQ-71" value="&lt;font color=&quot;#ffffff&quot;&gt;7&lt;/font&gt;" style="ellipse;whiteSpace=wrap;html=1;aspect=fixed;fontSize=14;strokeWidth=2;fillColor=#000000;" vertex="1" parent="1">
          <mxGeometry x="784" y="1152" width="22" height="22" as="geometry" />
        </mxCell>
        <mxCell id="cYdzDI0-7bz1sQTgUbkQ-73" value="&lt;font color=&quot;#ffffff&quot;&gt;8&lt;/font&gt;" style="ellipse;whiteSpace=wrap;html=1;aspect=fixed;fontSize=14;strokeWidth=2;fillColor=#000000;" vertex="1" parent="1">
          <mxGeometry x="784" y="1099" width="22" height="22" as="geometry" />
        </mxCell>
      </root>
    </mxGraphModel>
  </diagram>
</mxfile>
